<?xml version="1.0" encoding="UTF-8" standalone="no"?>
<!DOCTYPE svg PUBLIC "-//W3C//DTD SVG 1.1//EN" "http://www.w3.org/Graphics/SVG/1.1/DTD/svg11.dtd">
<svg width="100%" height="100%" viewBox="0 0 172 41" version="1.1" xmlns="http://www.w3.org/2000/svg" xmlns:xlink="http://www.w3.org/1999/xlink" xml:space="preserve" xmlns:serif="http://www.serif.com/" style="fill-rule:evenodd;clip-rule:evenodd;stroke-linejoin:round;stroke-miterlimit:2;">
    <g id="Artboard1" transform="matrix(1,0,0,1,-14.7625,-159.949)">
        <rect x="14.763" y="159.949" width="171.245" height="40.651" style="fill:none;"/>
        <g transform="matrix(0.608735,0,0,0.608735,-485.767,-110.543)">
            <g transform="matrix(0.700388,0,0,0.700388,487.214,35.0823)">
                <g transform="matrix(5.55549,0,0,6.18311,-3220.63,-426.72)">
                    <path d="M678.558,167.499L675.528,167.499L673.792,173.09L671.133,167.499L668.169,167.499L668.169,167.593C668.77,167.593 669.131,167.821 669.131,168.193L669.131,175.19C669.131,175.863 668.744,176.295 668.143,176.295L668.143,176.389L670.759,176.389L670.759,176.295C669.824,176.295 669.33,175.911 669.33,175.19L669.33,169.177L672.763,176.389L672.95,176.389L675.528,168.181L675.528,175.791C675.528,176.103 675.261,176.295 674.834,176.295L674.834,176.389L678.558,176.389L678.558,176.295C678.131,176.295 677.864,176.103 677.864,175.791L677.864,168.097C677.864,167.785 678.131,167.593 678.558,167.593L678.558,167.499Z" style="fill:rgb(0,46,94);fill-rule:nonzero;"/>
                </g>
                <g transform="matrix(5.55549,0,0,6.18311,-3220.63,-426.72)">
                    <path d="M682.165,172.141C682.9,172.141 683.248,172.417 683.248,172.994C683.248,173.414 683.114,173.822 683.114,174.242C683.114,174.662 683.248,175.07 683.248,175.49C683.248,176.055 682.9,176.331 682.165,176.331C681.457,176.331 681.123,176.079 681.123,175.514C681.123,175.082 681.23,174.674 681.23,174.242C681.23,173.81 681.123,173.402 681.123,172.969C681.123,172.405 681.444,172.141 682.165,172.141ZM682.125,176.485C682.593,176.485 682.927,176.402 683.114,176.235L683.114,176.389L686.211,176.389L686.211,176.295C685.784,176.295 685.517,176.091 685.517,175.754C685.517,174.782 685.557,173.822 685.557,172.849C685.557,170.858 684.449,169.791 682.379,169.791C681.096,169.791 680.015,170.197 679.361,170.93L680.295,171.939L680.389,171.891C680.269,171.638 680.202,171.41 680.202,171.206C680.202,170.498 681.003,169.957 682.072,169.957C682.887,169.957 683.288,170.329 683.288,171.11C683.288,171.41 683.261,171.722 683.181,172.309C683.007,172.094 682.646,171.987 682.112,171.987C680.202,171.987 678.827,172.933 678.827,174.254C678.827,175.562 680.189,176.485 682.125,176.485Z" style="fill:rgb(0,46,94);fill-rule:nonzero;"/>
                </g>
                <g transform="matrix(5.55549,0,0,6.18311,-3220.63,-426.72)">
                    <path d="M689.51,166.791L686.48,167.499L686.48,167.593C686.907,167.593 687.175,167.797 687.175,168.133L687.175,175.755C687.175,176.091 686.907,176.295 686.48,176.295L686.48,176.389L690.205,176.389L690.205,176.295C689.777,176.295 689.51,176.091 689.51,175.755L689.51,166.791Z" style="fill:rgb(0,46,94);fill-rule:nonzero;"/>
                </g>
                <g transform="matrix(5.55549,0,0,6.18311,-3220.63,-426.72)">
                    <path d="M693.811,172.141C694.547,172.141 694.894,172.417 694.894,172.994C694.894,173.414 694.76,173.822 694.76,174.242C694.76,174.662 694.894,175.07 694.894,175.49C694.894,176.055 694.547,176.331 693.811,176.331C693.103,176.331 692.769,176.079 692.769,175.514C692.769,175.082 692.876,174.674 692.876,174.242C692.876,173.81 692.769,173.402 692.769,172.969C692.769,172.405 693.09,172.141 693.811,172.141ZM693.771,176.485C694.239,176.485 694.573,176.402 694.76,176.235L694.76,176.389L697.857,176.389L697.857,176.295C697.43,176.295 697.163,176.091 697.163,175.754C697.163,174.782 697.203,173.822 697.203,172.849C697.203,170.858 696.095,169.791 694.025,169.791C692.742,169.791 691.661,170.197 691.007,170.93L691.941,171.939L692.035,171.891C691.915,171.638 691.848,171.41 691.848,171.206C691.848,170.498 692.649,169.957 693.718,169.957C694.533,169.957 694.934,170.329 694.934,171.11C694.934,171.41 694.907,171.722 694.827,172.309C694.654,172.094 694.293,171.987 693.758,171.987C691.848,171.987 690.473,172.933 690.473,174.254C690.473,175.562 691.835,176.485 693.771,176.485Z" style="fill:rgb(0,46,94);fill-rule:nonzero;"/>
                </g>
                <g transform="matrix(5.55549,0,0,6.18311,-3220.63,-426.72)">
                    <path d="M701.156,169.791L698.126,170.499L698.126,170.593C698.554,170.593 698.821,170.797 698.821,171.133L698.821,175.755C698.821,176.091 698.554,176.295 698.126,176.295L698.126,176.389L701.851,176.389L701.851,176.295C701.424,176.295 701.156,176.091 701.156,175.755L701.156,172.934C701.17,172.358 701.41,170.497 702.333,170.497C703.068,170.497 703.041,171.697 703.041,172.154L703.041,175.755C703.041,176.127 702.72,176.295 702.346,176.295L702.346,176.389L706.072,176.389L706.072,176.295C705.697,176.295 705.377,176.127 705.377,175.755L705.377,172.97C705.377,172.358 705.631,170.497 706.553,170.497C707.288,170.497 707.261,171.697 707.261,172.154L707.261,175.755C707.261,176.127 706.941,176.295 706.566,176.295L706.566,176.389L710.292,176.389L710.292,176.295C709.918,176.295 709.597,176.127 709.597,175.755L709.597,172.97C709.597,171.782 709.41,169.791 707.515,169.791C706.125,169.791 705.51,170.785 705.31,171.938C705.163,170.881 704.696,169.791 703.295,169.791C702.038,169.791 701.41,170.617 701.156,171.637L701.156,169.791Z" style="fill:rgb(0,46,94);fill-rule:nonzero;"/>
                </g>
                <g transform="matrix(5.55549,0,0,6.18311,-3220.63,-426.72)">
                    <path d="M713.898,172.141C714.634,172.141 714.981,172.417 714.981,172.994C714.981,173.414 714.847,173.822 714.847,174.242C714.847,174.662 714.981,175.07 714.981,175.49C714.981,176.055 714.634,176.331 713.898,176.331C713.19,176.331 712.856,176.079 712.856,175.514C712.856,175.082 712.963,174.674 712.963,174.242C712.963,173.81 712.856,173.402 712.856,172.969C712.856,172.405 713.177,172.141 713.898,172.141ZM713.858,176.485C714.326,176.485 714.66,176.402 714.847,176.235L714.847,176.389L717.944,176.389L717.944,176.295C717.517,176.295 717.25,176.091 717.25,175.754C717.25,174.782 717.29,173.822 717.29,172.849C717.29,170.858 716.182,169.791 714.112,169.791C712.829,169.791 711.748,170.197 711.094,170.93L712.028,171.939L712.122,171.891C712.002,171.638 711.935,171.41 711.935,171.206C711.935,170.498 712.736,169.957 713.805,169.957C714.62,169.957 715.021,170.329 715.021,171.11C715.021,171.41 714.994,171.722 714.914,172.309C714.74,172.094 714.38,171.987 713.845,171.987C711.935,171.987 710.56,172.933 710.56,174.254C710.56,175.562 711.922,176.485 713.858,176.485Z" style="fill:rgb(0,46,94);fill-rule:nonzero;"/>
                </g>
                <g transform="matrix(5.55549,0,0,6.18311,-3220.63,-426.72)">
                    <path d="M718.093,169.887L718.093,170.041L718.788,170.041L718.788,173.714C718.788,175.623 719.508,176.485 721.03,176.485C722.232,176.485 722.779,175.947 723.247,174.278L723.073,174.242C722.753,175.527 722.245,176.199 721.631,176.199C721.257,176.199 721.056,175.959 721.056,175.418C721.056,174.986 721.19,174.518 721.19,174.038L721.19,170.041L722.018,170.041L722.018,169.887L720.429,169.887C720.87,169.887 721.19,169.659 721.19,169.347L721.19,168.135L721.056,168.135C720.402,169.239 719.335,169.875 718.093,169.887Z" style="fill:rgb(0,46,94);fill-rule:nonzero;"/>
                </g>
                <g transform="matrix(5.55549,0,0,6.18311,-3220.63,-426.72)">
                    <path d="M726.225,166.791L723.262,167.499L723.262,167.593C723.689,167.593 723.956,167.797 723.956,168.134L723.956,175.755C723.956,176.091 723.689,176.295 723.262,176.295L723.262,176.389L726.987,176.389L726.987,176.295C726.559,176.295 726.292,176.091 726.292,175.755L726.292,172.934C726.305,172.358 726.573,170.497 727.495,170.497C728.27,170.497 728.244,171.697 728.244,172.154L728.244,175.755C728.244,176.127 727.923,176.295 727.549,176.295L727.549,176.389L731.274,176.389L731.274,176.295C730.9,176.295 730.579,176.127 730.579,175.755L730.579,172.97C730.579,171.782 730.392,169.791 728.457,169.791C727.054,169.791 726.426,170.809 726.225,171.974L726.225,166.791Z" style="fill:rgb(0,46,94);fill-rule:nonzero;"/>
                </g>
                <g transform="matrix(5.55549,0,0,6.18311,-3220.63,-426.72)">
                    <path d="M734.573,169.791L731.542,170.499L731.542,170.593C731.97,170.593 732.237,170.797 732.237,171.133L732.237,175.755C732.237,176.091 731.97,176.295 731.542,176.295L731.542,176.389L735.267,176.389L735.267,176.295C734.84,176.295 734.573,176.091 734.573,175.755L734.573,169.791ZM733.371,169.237C734.079,169.237 734.586,168.77 734.586,168.146C734.586,167.51 734.079,167.055 733.371,167.055C732.651,167.055 732.143,167.498 732.143,168.146C732.143,168.77 732.651,169.237 733.371,169.237Z" style="fill:rgb(0,46,94);fill-rule:nonzero;"/>
                </g>
                <g transform="matrix(1.68669,0,0,0.791326,-1017.37,264.993)">
                    <rect x="894.645" y="513.466" width="167" height="8" style="fill:rgb(0,97,189);"/>
                </g>
                <g transform="matrix(3.10937,0,0,0.791326,-2568.67,264.993)">
                    <rect x="1076.64" y="513.466" width="16" height="8" style="fill:rgb(110,206,238);"/>
                </g>
                <g transform="matrix(1.96852,0,0,0.791326,-1285.62,264.993)">
                    <rect x="1076.64" y="513.466" width="16" height="8" style="fill:rgb(0,195,33);"/>
                </g>
            </g>
            <g transform="matrix(0.700388,0,0,0.700388,487.214,35.0823)">
                <g transform="matrix(5.55549,0,0,6.18311,-3220.63,-426.72)">
                    <path d="M678.558,167.499L675.528,167.499L673.792,173.09L671.133,167.499L668.169,167.499L668.169,167.593C668.77,167.593 669.131,167.821 669.131,168.193L669.131,175.19C669.131,175.863 668.744,176.295 668.143,176.295L668.143,176.389L670.759,176.389L670.759,176.295C669.824,176.295 669.33,175.911 669.33,175.19L669.33,169.177L672.763,176.389L672.95,176.389L675.528,168.181L675.528,175.791C675.528,176.103 675.261,176.295 674.834,176.295L674.834,176.389L678.558,176.389L678.558,176.295C678.131,176.295 677.864,176.103 677.864,175.791L677.864,168.097C677.864,167.785 678.131,167.593 678.558,167.593L678.558,167.499Z" style="fill:rgb(0,46,94);fill-rule:nonzero;"/>
                </g>
                <g transform="matrix(5.55549,0,0,6.18311,-3220.63,-426.72)">
                    <path d="M682.165,172.141C682.9,172.141 683.248,172.417 683.248,172.994C683.248,173.414 683.114,173.822 683.114,174.242C683.114,174.662 683.248,175.07 683.248,175.49C683.248,176.055 682.9,176.331 682.165,176.331C681.457,176.331 681.123,176.079 681.123,175.514C681.123,175.082 681.23,174.674 681.23,174.242C681.23,173.81 681.123,173.402 681.123,172.969C681.123,172.405 681.444,172.141 682.165,172.141ZM682.125,176.485C682.593,176.485 682.927,176.402 683.114,176.235L683.114,176.389L686.211,176.389L686.211,176.295C685.784,176.295 685.517,176.091 685.517,175.754C685.517,174.782 685.557,173.822 685.557,172.849C685.557,170.858 684.449,169.791 682.379,169.791C681.096,169.791 680.015,170.197 679.361,170.93L680.295,171.939L680.389,171.891C680.269,171.638 680.202,171.41 680.202,171.206C680.202,170.498 681.003,169.957 682.072,169.957C682.887,169.957 683.288,170.329 683.288,171.11C683.288,171.41 683.261,171.722 683.181,172.309C683.007,172.094 682.646,171.987 682.112,171.987C680.202,171.987 678.827,172.933 678.827,174.254C678.827,175.562 680.189,176.485 682.125,176.485Z" style="fill:rgb(0,46,94);fill-rule:nonzero;"/>
                </g>
                <g transform="matrix(5.55549,0,0,6.18311,-3220.63,-426.72)">
                    <path d="M689.51,166.791L686.48,167.499L686.48,167.593C686.907,167.593 687.175,167.797 687.175,168.133L687.175,175.755C687.175,176.091 686.907,176.295 686.48,176.295L686.48,176.389L690.205,176.389L690.205,176.295C689.777,176.295 689.51,176.091 689.51,175.755L689.51,166.791Z" style="fill:rgb(0,46,94);fill-rule:nonzero;"/>
                </g>
                <g transform="matrix(5.55549,0,0,6.18311,-3220.63,-426.72)">
                    <path d="M693.811,172.141C694.547,172.141 694.894,172.417 694.894,172.994C694.894,173.414 694.76,173.822 694.76,174.242C694.76,174.662 694.894,175.07 694.894,175.49C694.894,176.055 694.547,176.331 693.811,176.331C693.103,176.331 692.769,176.079 692.769,175.514C692.769,175.082 692.876,174.674 692.876,174.242C692.876,173.81 692.769,173.402 692.769,172.969C692.769,172.405 693.09,172.141 693.811,172.141ZM693.771,176.485C694.239,176.485 694.573,176.402 694.76,176.235L694.76,176.389L697.857,176.389L697.857,176.295C697.43,176.295 697.163,176.091 697.163,175.754C697.163,174.782 697.203,173.822 697.203,172.849C697.203,170.858 696.095,169.791 694.025,169.791C692.742,169.791 691.661,170.197 691.007,170.93L691.941,171.939L692.035,171.891C691.915,171.638 691.848,171.41 691.848,171.206C691.848,170.498 692.649,169.957 693.718,169.957C694.533,169.957 694.934,170.329 694.934,171.11C694.934,171.41 694.907,171.722 694.827,172.309C694.654,172.094 694.293,171.987 693.758,171.987C691.848,171.987 690.473,172.933 690.473,174.254C690.473,175.562 691.835,176.485 693.771,176.485Z" style="fill:rgb(0,46,94);fill-rule:nonzero;"/>
                </g>
                <g transform="matrix(5.55549,0,0,6.18311,-3220.63,-426.72)">
                    <path d="M701.156,169.791L698.126,170.499L698.126,170.593C698.554,170.593 698.821,170.797 698.821,171.133L698.821,175.755C698.821,176.091 698.554,176.295 698.126,176.295L698.126,176.389L701.851,176.389L701.851,176.295C701.424,176.295 701.156,176.091 701.156,175.755L701.156,172.934C701.17,172.358 701.41,170.497 702.333,170.497C703.068,170.497 703.041,171.697 703.041,172.154L703.041,175.755C703.041,176.127 702.72,176.295 702.346,176.295L702.346,176.389L706.072,176.389L706.072,176.295C705.697,176.295 705.377,176.127 705.377,175.755L705.377,172.97C705.377,172.358 705.631,170.497 706.553,170.497C707.288,170.497 707.261,171.697 707.261,172.154L707.261,175.755C707.261,176.127 706.941,176.295 706.566,176.295L706.566,176.389L710.292,176.389L710.292,176.295C709.918,176.295 709.597,176.127 709.597,175.755L709.597,172.97C709.597,171.782 709.41,169.791 707.515,169.791C706.125,169.791 705.51,170.785 705.31,171.938C705.163,170.881 704.696,169.791 703.295,169.791C702.038,169.791 701.41,170.617 701.156,171.637L701.156,169.791Z" style="fill:rgb(0,46,94);fill-rule:nonzero;"/>
                </g>
                <g transform="matrix(5.55549,0,0,6.18311,-3220.63,-426.72)">
                    <path d="M713.898,172.141C714.634,172.141 714.981,172.417 714.981,172.994C714.981,173.414 714.847,173.822 714.847,174.242C714.847,174.662 714.981,175.07 714.981,175.49C714.981,176.055 714.634,176.331 713.898,176.331C713.19,176.331 712.856,176.079 712.856,175.514C712.856,175.082 712.963,174.674 712.963,174.242C712.963,173.81 712.856,173.402 712.856,172.969C712.856,172.405 713.177,172.141 713.898,172.141ZM713.858,176.485C714.326,176.485 714.66,176.402 714.847,176.235L714.847,176.389L717.944,176.389L717.944,176.295C717.517,176.295 717.25,176.091 717.25,175.754C717.25,174.782 717.29,173.822 717.29,172.849C717.29,170.858 716.182,169.791 714.112,169.791C712.829,169.791 711.748,170.197 711.094,170.93L712.028,171.939L712.122,171.891C712.002,171.638 711.935,171.41 711.935,171.206C711.935,170.498 712.736,169.957 713.805,169.957C714.62,169.957 715.021,170.329 715.021,171.11C715.021,171.41 714.994,171.722 714.914,172.309C714.74,172.094 714.38,171.987 713.845,171.987C711.935,171.987 710.56,172.933 710.56,174.254C710.56,175.562 711.922,176.485 713.858,176.485Z" style="fill:rgb(0,46,94);fill-rule:nonzero;"/>
                </g>
                <g transform="matrix(5.55549,0,0,6.18311,-3220.63,-426.72)">
                    <path d="M718.093,169.887L718.093,170.041L718.788,170.041L718.788,173.714C718.788,175.623 719.508,176.485 721.03,176.485C722.232,176.485 722.779,175.947 723.247,174.278L723.073,174.242C722.753,175.527 722.245,176.199 721.631,176.199C721.257,176.199 721.056,175.959 721.056,175.418C721.056,174.986 721.19,174.518 721.19,174.038L721.19,170.041L722.018,170.041L722.018,169.887L720.429,169.887C720.87,169.887 721.19,169.659 721.19,169.347L721.19,168.135L721.056,168.135C720.402,169.239 719.335,169.875 718.093,169.887Z" style="fill:rgb(0,46,94);fill-rule:nonzero;"/>
                </g>
                <g transform="matrix(5.55549,0,0,6.18311,-3220.63,-426.72)">
                    <path d="M726.225,166.791L723.262,167.499L723.262,167.593C723.689,167.593 723.956,167.797 723.956,168.134L723.956,175.755C723.956,176.091 723.689,176.295 723.262,176.295L723.262,176.389L726.987,176.389L726.987,176.295C726.559,176.295 726.292,176.091 726.292,175.755L726.292,172.934C726.305,172.358 726.573,170.497 727.495,170.497C728.27,170.497 728.244,171.697 728.244,172.154L728.244,175.755C728.244,176.127 727.923,176.295 727.549,176.295L727.549,176.389L731.274,176.389L731.274,176.295C730.9,176.295 730.579,176.127 730.579,175.755L730.579,172.97C730.579,171.782 730.392,169.791 728.457,169.791C727.054,169.791 726.426,170.809 726.225,171.974L726.225,166.791Z" style="fill:rgb(0,46,94);fill-rule:nonzero;"/>
                </g>
                <g transform="matrix(5.55549,0,0,6.18311,-3220.63,-426.72)">
                    <path d="M734.573,169.791L731.542,170.499L731.542,170.593C731.97,170.593 732.237,170.797 732.237,171.133L732.237,175.755C732.237,176.091 731.97,176.295 731.542,176.295L731.542,176.389L735.267,176.389L735.267,176.295C734.84,176.295 734.573,176.091 734.573,175.755L734.573,169.791ZM733.371,169.237C734.079,169.237 734.586,168.77 734.586,168.146C734.586,167.51 734.079,167.055 733.371,167.055C732.651,167.055 732.143,167.498 732.143,168.146C732.143,168.77 732.651,169.237 733.371,169.237Z" style="fill:rgb(0,46,94);fill-rule:nonzero;"/>
                </g>
            </g>
        </g>
    </g>
</svg>
